name Walk8.mot
datacolumns 19
datarows 30
range 2.22600000 2.25500000
endheader

                time	   L_ground_force_vx	   L_ground_force_vy	   L_ground_force_vz	   L_ground_force_px	   L_ground_force_py	   L_ground_force_pz	   R_ground_force_vx	   R_ground_force_vy	   R_ground_force_vz	   R_ground_force_px	   R_ground_force_py	   R_ground_force_pz	   L_ground_torque_x	   L_ground_torque_y	   L_ground_torque_z	   R_ground_torque_x	   R_ground_torque_y	   R_ground_torque_z	
          2.22600000	         -3.05145454	         -7.82139442	         -0.48858544	          0.09682981	          0.00000000	          0.03594459	          0.00000000	          0.00000000	          0.00000000	         -0.00000000	          0.00000000	          0.00000000	          0.00000000	         -0.00476175	          0.00000000	          0.00000000	         -0.00000000	          0.00000000	
          2.22700000	         -3.34593474	         -8.44765627	         -0.40850641	          0.08853098	          0.00000000	          0.03288489	          0.00000000	          0.00000000	          0.00000000	         -0.00000000	          0.00000000	          0.00000000	          0.00000000	         -0.00338351	          0.00000000	          0.00000000	         -0.00000000	          0.00000000	
          2.22800000	         -3.60273350	         -8.98874899	         -0.33369239	          0.08060320	          0.00000000	          0.02996107	          0.00000000	          0.00000000	          0.00000000	         -0.00000000	          0.00000000	          0.00000000	          0.00000000	         -0.00210966	          0.00000000	          0.00000000	         -0.00000000	          0.00000000	
          2.22900000	         -3.82408426	         -9.44986937	         -0.26397842	          0.07304490	          0.00000000	          0.02717264	          0.00000000	          0.00000000	          0.00000000	         -0.00000000	          0.00000000	          0.00000000	          0.00000000	         -0.00093615	          0.00000000	          0.00000000	         -0.00000000	          0.00000000	
          2.23000000	         -4.01216454	         -9.83607451	         -0.19919431	          0.06585322	          0.00000000	          0.02451860	          0.00000000	          0.00000000	          0.00000000	         -0.00000000	          0.00000000	          0.00000000	          0.00000000	          0.00014112	          0.00000000	          0.00000000	         -0.00000000	          0.00000000	
          2.23100000	         -4.16909241	        -10.15227465	         -0.13916571	          0.05902416	          0.00000000	          0.02199758	          0.00000000	          0.00000000	          0.00000000	         -0.00000000	          0.00000000	          0.00000000	          0.00000000	          0.00112626	          0.00000000	          0.00000000	         -0.00000000	          0.00000000	
          2.23200000	         -4.29692359	        -10.40322705	         -0.08371512	          0.05255269	          0.00000000	          0.01960778	          0.00000000	          0.00000000	          0.00000000	         -0.00000000	          0.00000000	          0.00000000	          0.00000000	          0.00202339	          0.00000000	          0.00000000	         -0.00000000	          0.00000000	
          2.23300000	         -4.39764896	        -10.59353106	         -0.03266282	          0.04643288	          0.00000000	          0.01734708	          0.00000000	          0.00000000	          0.00000000	         -0.00000000	          0.00000000	          0.00000000	          0.00000000	          0.00283659	          0.00000000	          0.00000000	         -0.00000000	          0.00000000	
          2.23400000	         -4.47319254	        -10.72762413	          0.01417222	          0.04065793	          0.00000000	          0.01521304	          0.00000000	          0.00000000	          0.00000000	         -0.00000000	          0.00000000	          0.00000000	          0.00000000	          0.00356993	          0.00000000	          0.00000000	         -0.00000000	          0.00000000	
          2.23500000	         -4.52540994	        -10.80977886	          0.05697160	          0.03522036	          0.00000000	          0.01320296	          0.00000000	          0.00000000	          0.00000000	         -0.00000000	          0.00000000	          0.00000000	          0.00000000	          0.00422743	          0.00000000	          0.00000000	         -0.00000000	          0.00000000	
          2.23600000	         -4.55608713	        -10.84410081	          0.09591671	          0.03011202	          0.00000000	          0.01131389	          0.00000000	          0.00000000	          0.00000000	         -0.00000000	          0.00000000	          0.00000000	          0.00000000	          0.00481306	          0.00000000	          0.00000000	         -0.00000000	          0.00000000	
          2.23700000	         -4.56693962	        -10.83452724	          0.13118811	          0.02532423	          0.00000000	          0.00954269	          0.00000000	          0.00000000	          0.00000000	         -0.00000000	          0.00000000	          0.00000000	          0.00000000	          0.00533070	          0.00000000	          0.00000000	         -0.00000000	          0.00000000	
          2.23800000	         -4.55961199	        -10.78482649	          0.16296485	          0.02084783	          0.00000000	          0.00788603	          0.00000000	          0.00000000	          0.00000000	         -0.00000000	          0.00000000	          0.00000000	          0.00000000	          0.00578419	          0.00000000	          0.00000000	         -0.00000000	          0.00000000	
          2.23900000	         -4.53567767	        -10.69859815	          0.19142399	          0.01667325	          0.00000000	          0.00634042	          0.00000000	          0.00000000	          0.00000000	         -0.00000000	          0.00000000	          0.00000000	          0.00000000	          0.00617726	          0.00000000	          0.00000000	         -0.00000000	          0.00000000	
          2.24000000	         -4.49663907	        -10.57927379	          0.21674007	          0.01279060	          0.00000000	          0.00490226	          0.00000000	          0.00000000	          0.00000000	         -0.00000000	          0.00000000	          0.00000000	          0.00000000	          0.00651357	          0.00000000	          0.00000000	         -0.00000000	          0.00000000	
          2.24100000	         -4.44392794	        -10.43011828	          0.23908467	          0.00918974	          0.00000000	          0.00356786	          0.00000000	          0.00000000	          0.00000000	         -0.00000000	          0.00000000	          0.00000000	          0.00000000	          0.00679667	          0.00000000	          0.00000000	         -0.00000000	          0.00000000	
          2.24200000	         -4.37890597	        -10.25423159	          0.25862599	          0.00586031	          0.00000000	          0.00233343	          0.00000000	          0.00000000	          0.00000000	         -0.00000000	          0.00000000	          0.00000000	          0.00000000	          0.00703002	          0.00000000	          0.00000000	         -0.00000000	          0.00000000	
          2.24300000	         -4.30286556	        -10.05455117	          0.27552853	          0.00279182	          0.00000000	          0.00119515	          0.00000000	          0.00000000	          0.00000000	         -0.00000000	          0.00000000	          0.00000000	          0.00000000	          0.00721696	          0.00000000	          0.00000000	         -0.00000000	          0.00000000	
          2.24400000	         -4.21703090	         -9.83385460	          0.28995279	         -0.00002632	          0.00000000	          0.00014912	          0.00000000	          0.00000000	          0.00000000	         -0.00000000	          0.00000000	          0.00000000	          0.00000000	          0.00736074	          0.00000000	          0.00000000	         -0.00000000	          0.00000000	
          2.24500000	         -4.12255908	         -9.59476272	          0.30205498	         -0.00260476	          0.00000000	         -0.00080852	          0.00000000	          0.00000000	          0.00000000	         -0.00000000	          0.00000000	          0.00000000	          0.00000000	          0.00746448	          0.00000000	          0.00000000	         -0.00000000	          0.00000000	
          2.24600000	         -4.02054146	         -9.33974305	          0.31198680	         -0.00495412	          0.00000000	         -0.00168169	          0.00000000	          0.00000000	          0.00000000	         -0.00000000	          0.00000000	          0.00000000	          0.00000000	          0.00753119	          0.00000000	          0.00000000	         -0.00000000	          0.00000000	
          2.24700000	         -3.91200511	         -9.07111350	          0.31989524	         -0.00708501	          0.00000000	         -0.00247427	          0.00000000	          0.00000000	          0.00000000	         -0.00000000	          0.00000000	          0.00000000	          0.00000000	          0.00756377	          0.00000000	          0.00000000	         -0.00000000	          0.00000000	
          2.24800000	         -3.79791442	         -8.79104633	          0.32592247	         -0.00900794	          0.00000000	         -0.00319011	          0.00000000	          0.00000000	          0.00000000	         -0.00000000	          0.00000000	          0.00000000	          0.00000000	          0.00756500	          0.00000000	          0.00000000	         -0.00000000	          0.00000000	
          2.24900000	         -3.67917275	         -8.50157231	          0.33020565	         -0.01073335	          0.00000000	         -0.00383303	          0.00000000	          0.00000000	          0.00000000	         -0.00000000	          0.00000000	          0.00000000	          0.00000000	          0.00753754	          0.00000000	          0.00000000	         -0.00000000	          0.00000000	
          2.25000000	         -3.55662426	         -8.20458512	          0.33287688	         -0.01227149	          0.00000000	         -0.00440680	          0.00000000	          0.00000000	          0.00000000	         -0.00000000	          0.00000000	          0.00000000	          0.00000000	          0.00748393	          0.00000000	          0.00000000	         -0.00000000	          0.00000000	
          2.25100000	         -3.43105570	         -7.90184580	          0.33406314	         -0.01363249	          0.00000000	         -0.00491513	          0.00000000	          0.00000000	          0.00000000	         -0.00000000	          0.00000000	          0.00000000	          0.00000000	          0.00740660	          0.00000000	          0.00000000	         -0.00000000	          0.00000000	
          2.25200000	         -3.30319833	         -7.59498740	          0.33388618	         -0.01482625	          0.00000000	         -0.00536167	          0.00000000	          0.00000000	          0.00000000	         -0.00000000	          0.00000000	          0.00000000	          0.00000000	          0.00730786	          0.00000000	          0.00000000	         -0.00000000	          0.00000000	
          2.25300000	         -3.17372992	         -7.28551968	          0.33246259	         -0.01586249	          0.00000000	         -0.00574999	          0.00000000	          0.00000000	          0.00000000	         -0.00000000	          0.00000000	          0.00000000	          0.00000000	          0.00718989	          0.00000000	          0.00000000	         -0.00000000	          0.00000000	
          2.25400000	         -3.04327666	         -6.97483392	          0.32990375	         -0.01675068	          0.00000000	         -0.00608356	          0.00000000	          0.00000000	          0.00000000	         -0.00000000	          0.00000000	          0.00000000	          0.00000000	          0.00705479	          0.00000000	          0.00000000	         -0.00000000	          0.00000000	
          2.25500000	         -2.91241525	         -6.66420768	          0.32631583	         -0.01750006	          0.00000000	         -0.00636577	          0.00000000	          0.00000000	          0.00000000	         -0.00000000	          0.00000000	          0.00000000	          0.00000000	          0.00690452	          0.00000000	          0.00000000	         -0.00000000	          0.00000000	
